<svg xmlns="http://www.w3.org/2000/svg" xmlns:xlink="http://www.w3.org/1999/xlink" width="744" height="680" viewBox="0 0 744 680"><defs><style>.a{fill:#0f2a09;stroke:#707070;}.b{fill:#4dd42b;stroke-linecap:round;}.b,.e{stroke:#4cd42b;}.b,.h{stroke-linejoin:round;}.b,.e,.f,.g,.h,.i{stroke-width:2px;}.c{fill:#36941e;}.d{fill:#fff;}.e,.k{fill:none;}.f{fill:#1c6710;stroke:#1c6710;}.g{fill:#1f7212;stroke:#1f7212;}.h{fill:#71dc56;stroke:#71dc56;}.i{fill:#3ea923;stroke:#3ea923;}.j{stroke:none;}.l{filter:url(#j);}.m{filter:url(#h);}.n{filter:url(#f);}.o{filter:url(#d);}.p{filter:url(#a);}</style><filter id="a"><feOffset dx="-5" dy="5" input="SourceAlpha"/><feGaussianBlur stdDeviation="5" result="b"/><feFlood flood-opacity="0.161" result="c"/><feComposite operator="out" in="SourceGraphic" in2="b"/><feComposite operator="in" in="c"/><feComposite operator="in" in2="SourceGraphic"/></filter><filter id="d" x="260" y="178" width="244" height="239" filterUnits="userSpaceOnUse"><feOffset dx="10" dy="5" input="SourceAlpha"/><feGaussianBlur stdDeviation="3" result="e"/><feFlood flood-opacity="0.161"/><feComposite operator="in" in2="e"/><feComposite in="SourceGraphic"/></filter><filter id="f" x="291" y="209" width="181" height="174" filterUnits="userSpaceOnUse"><feOffset dx="10" dy="3" input="SourceAlpha"/><feGaussianBlur stdDeviation="3" result="g"/><feFlood flood-opacity="0.161"/><feComposite operator="in" in2="g"/><feComposite in="SourceGraphic"/></filter><filter id="h" x="161" y="118.5" width="31.5" height="101" filterUnits="userSpaceOnUse"><feOffset dx="5" input="SourceAlpha"/><feGaussianBlur stdDeviation="1.5" result="i"/><feFlood flood-opacity="0.161"/><feComposite operator="in" in2="i"/><feComposite in="SourceGraphic"/></filter><filter id="j" x="160" y="382.5" width="31.5" height="101" filterUnits="userSpaceOnUse"><feOffset dx="5" input="SourceAlpha"/><feGaussianBlur stdDeviation="1.5" result="k"/><feFlood flood-opacity="0.161"/><feComposite operator="in" in2="k"/><feComposite in="SourceGraphic"/></filter></defs><g transform="translate(-545 -131)"><g class="a" transform="translate(545 133)"><ellipse class="j" cx="372" cy="339" rx="372" ry="339"/><ellipse class="k" cx="372" cy="339" rx="371.5" ry="338.5"/></g><g transform="translate(433 -177)"><g class="b" transform="translate(234 310)"><rect class="j" width="500" height="581" rx="25"/><rect class="k" x="-1" y="-1" width="502" height="583" rx="26"/></g><g data-type="innerShadowGroup"><rect class="c" width="402" height="511" rx="25" transform="translate(283 353)"/><g class="p" transform="matrix(1, 0, 0, 1, 112, 308)"><rect class="d" width="402" height="511" rx="25" transform="translate(171 45)"/></g><g class="e" transform="translate(283 353)"><rect class="j" width="402" height="511" rx="25"/><rect class="k" x="1" y="1" width="400" height="509" rx="24"/></g></g><g class="o" transform="matrix(1, 0, 0, 1, 112, 308)"><g class="f" transform="translate(260 182)"><ellipse class="j" cx="112.5" cy="110.5" rx="112.5" ry="110.5"/><ellipse class="k" cx="112.5" cy="110.5" rx="111.5" ry="109.5"/></g></g><g class="n" transform="matrix(1, 0, 0, 1, 112, 308)"><g class="g" transform="translate(291 215)"><ellipse class="j" cx="81" cy="78" rx="81" ry="78"/><ellipse class="k" cx="81" cy="78" rx="80" ry="77"/></g></g><g class="m" transform="matrix(1, 0, 0, 1, 112, 308)"><g class="h" transform="translate(161 123)"><rect class="j" width="22" height="92" rx="11"/><rect class="k" x="1" y="1" width="20" height="90" rx="10"/></g></g><g class="l" transform="matrix(1, 0, 0, 1, 112, 308)"><g class="h" transform="translate(160 387)"><rect class="j" width="22" height="92" rx="11"/><rect class="k" x="1" y="1" width="20" height="90" rx="10"/></g></g><g class="i" transform="translate(284 891)"><path class="j" d="M0,0H95a0,0,0,0,1,0,0V24A25,25,0,0,1,70,49H25A25,25,0,0,1,0,24V0A0,0,0,0,1,0,0Z"/><path class="k" d="M1,1H94a0,0,0,0,1,0,0V24A24,24,0,0,1,70,48H25A24,24,0,0,1,1,24V1A0,0,0,0,1,1,1Z"/></g><g class="i" transform="translate(565 891)"><path class="j" d="M0,0H99a0,0,0,0,1,0,0V24A25,25,0,0,1,74,49H25A25,25,0,0,1,0,24V0A0,0,0,0,1,0,0Z"/><path class="k" d="M1,1H98a0,0,0,0,1,0,0V24A24,24,0,0,1,74,48H25A24,24,0,0,1,1,24V1A0,0,0,0,1,1,1Z"/></g></g></g></svg>